HIERARCHY
ROOT Hips
{
	OFFSET 0.00000 0.00000 0.00000
	CHANNELS 6 Xposition Yposition Zposition Zrotation Yrotation Xrotation 
	JOINT LHipJoint
	{
		OFFSET 0 0 0
		CHANNELS 3 Zrotation Yrotation Xrotation
		JOINT LeftUpLeg
		{
			OFFSET 1.37959 -1.78713 0.86582
			CHANNELS 3 Zrotation Yrotation Xrotation
			JOINT LeftLeg
			{
				OFFSET 2.54611 -6.99539 0.00000
				CHANNELS 3 Zrotation Yrotation Xrotation
				JOINT LeftFoot
				{
					OFFSET 2.59951 -7.14211 0.00000
					CHANNELS 3 Zrotation Yrotation Xrotation
					JOINT LeftToeBase
					{
						OFFSET 0.18493 -0.50810 1.96120
						CHANNELS 3 Zrotation Yrotation Xrotation
						End Site
						{
							OFFSET 0.00000 -0.00000 1.02054
						}
					}
				}
			}
		}
	}
	JOINT RHipJoint
	{
		OFFSET 0 0 0
		CHANNELS 3 Zrotation Yrotation Xrotation
		JOINT RightUpLeg
		{
			OFFSET -1.33564 -1.78713 0.86582
			CHANNELS 3 Zrotation Yrotation Xrotation
			JOINT RightLeg
			{
				OFFSET -2.52705 -6.94302 0.00000
				CHANNELS 3 Zrotation Yrotation Xrotation
				JOINT RightFoot
				{
					OFFSET -2.55964 -7.03257 0.00000
					CHANNELS 3 Zrotation Yrotation Xrotation
					JOINT RightToeBase
					{
						OFFSET -0.25804 -0.70896 2.12109
						CHANNELS 3 Zrotation Yrotation Xrotation
						End Site
						{
							OFFSET -0.00000 -0.00000 1.11821
						}
					}
				}
			}
		}
	}
	JOINT LowerBack
	{
		OFFSET 0 0 0
		CHANNELS 3 Zrotation Yrotation Xrotation
		JOINT Spine
		{
			OFFSET -0.02031 2.24248 -0.18900
			CHANNELS 3 Zrotation Yrotation Xrotation
			JOINT Spine1
			{
				OFFSET 0.08342 2.24689 -0.03799
				CHANNELS 3 Zrotation Yrotation Xrotation
				JOINT Neck
				{
					OFFSET 0 0 0
					CHANNELS 3 Zrotation Yrotation Xrotation
					JOINT Neck1
					{
						OFFSET -0.11607 1.55844 0.24628
						CHANNELS 3 Zrotation Yrotation Xrotation
						JOINT Head
						{
							OFFSET 0.06877 1.60174 -0.17013
							CHANNELS 3 Zrotation Yrotation Xrotation
							End Site
							{
								OFFSET 0.03358 1.61266 -0.08543
							}
						}
					}
				}
				JOINT LeftShoulder
				{
					OFFSET 0 0 0
					CHANNELS 3 Zrotation Yrotation Xrotation
					JOINT LeftArm
					{
						OFFSET 3.47537 0.55866 -0.72348
						CHANNELS 3 Zrotation Yrotation Xrotation
						JOINT LeftForeArm
						{
							OFFSET 5.38154 -0.00000 0.00000
							CHANNELS 3 Zrotation Yrotation Xrotation
							JOINT LeftHand
							{
								OFFSET 3.33312 -0.00000 0.00000
								CHANNELS 3 Zrotation Yrotation Xrotation
								JOINT LeftFingerBase
								{
									OFFSET 0 0 0
									CHANNELS 3 Zrotation Yrotation Xrotation
									JOINT LeftHandIndex1
									{
										OFFSET 0.71079 -0.00000 0.00000
										CHANNELS 3 Zrotation Yrotation Xrotation
										End Site
										{
											OFFSET 0.57306 -0.00000 0.00000
										}
									}
								}
								JOINT LThumb
								{
									OFFSET 0 0 0
									CHANNELS 3 Zrotation Yrotation Xrotation
									End Site
									{
										OFFSET 0.58181 -0.00000 0.58181
									}
								}
							}
						}
					}
				}
				JOINT RightShoulder
				{
					OFFSET 0 0 0
					CHANNELS 3 Zrotation Yrotation Xrotation
					JOINT RightArm
					{
						OFFSET -3.27844 0.90739 -0.35708
						CHANNELS 3 Zrotation Yrotation Xrotation
						JOINT RightForeArm
						{
							OFFSET -5.16954 -0.00000 0.00000
							CHANNELS 3 Zrotation Yrotation Xrotation
							JOINT RightHand
							{
								OFFSET -3.38287 -0.00000 0.00000
								CHANNELS 3 Zrotation Yrotation Xrotation
								JOINT RightFingerBase
								{
									OFFSET 0 0 0
									CHANNELS 3 Zrotation Yrotation Xrotation
									JOINT RightHandIndex1
									{
										OFFSET -0.81797 -0.00000 0.00000
										CHANNELS 3 Zrotation Yrotation Xrotation
										End Site
										{
											OFFSET -0.65947 -0.00000 0.00000
										}
									}
								}
								JOINT RThumb
								{
									OFFSET 0 0 0
									CHANNELS 3 Zrotation Yrotation Xrotation
									End Site
									{
										OFFSET -0.66953 -0.00000 0.66953
									}
								}
							}
						}
					}
				}
			}
		}
	}
}
MOTION
Frames: 6
Frame Time: .0083333
16.1477 18.1778 25.4822 0 0 0 0 0 0 -21 0 0 0 0 0 0 0 0 0 0 0 0 0 0 21 0 0 0 0 0 0 0 0 0 0 0 0 0 0 0 0 0 0 0 0 0 0 -16 0 0 21 0 0 11 0 0 0 -8 0 0 0 0 0 0 0 0 0 0 0 0 0 0 0 0 0 0 0 0 8 0 0 0 0 0 0 0 0 0 0 0 0 0 0 0 0 0
16.1477 18.1778 25.4822 -179.2020 6.7843 -176.2930 0.0000 0.0000 0.0000 -18.2667 -0.2271 -23.2098 2.5965 10.0113 29.0134 0.1655 -4.0858 -7.3467 0.5306 -4.6677 -12.9632 0.0000 0.0000 0.0000 19.9423 2.9602 -2.8989 -7.7649 -15.9436 51.7114 0.6769 -14.8495 -9.4692 -0.4689 -4.3918 12.1817 -1.0087 0.3207 1.3215 1.6667 0.6467 4.8862 2.3097 0.3574 4.2660 -12.7371 -1.0376 -11.4033 -0.6930 5.3682 32.3785 2.9063 1.8557 12.5415 0.0000 -0.0000 0.0000 -52.0809 10.1037 74.9910 35.1534 -44.9214 -14.9216 -0.0000 0.0000 -5.3586 12.7384 35.8044 7.5338 -7.1250 0.0000 -0.0000 -26.4645 64.5843 -12.9735 0.0000 -0.0000 0.0000 80.7874 14.0481 24.8308 -27.9119 39.0350 -10.0681 0.0000 -0.0000 -17.8055 -13.1097 19.4782 -4.4404 7.1250 -0.0000 -0.0000 9.8145 -10.2493 8.0335
16.1181 18.2151 25.3218 -179.8690 6.6909 -176.3740 0.0000 0.0000 0.0000 -19.3168 0.2936 -22.7060 2.4941 9.8271 28.4187 0.1676 -4.3962 -7.4438 0.6636 -5.2097 -14.5077 0.0000 0.0000 0.0000 19.1972 2.9657 -4.0854 -8.1509 -16.2292 53.1045 0.6701 -15.0721 -10.6592 -0.5514 -4.7567 13.2160 -1.7382 0.2770 1.2859 1.5794 0.5893 4.8282 2.6274 0.2983 4.2255 -12.5478 -1.0876 -11.5607 -0.8686 5.4445 32.7494 2.8383 1.8857 12.7400 -0.0000 0.0000 0.0000 -52.5012 9.9467 74.8667 34.6195 -44.5385 -14.5458 -0.0000 0.0000 -5.3616 13.6739 35.0022 7.9445 -7.1250 0.0000 -0.0000 -24.5615 64.1314 -11.7266 -0.0000 0.0000 0.0000 80.8269 13.7753 24.7322 -27.6284 38.7718 -9.8901 0.0000 -0.0000 -17.5733 -13.8330 19.4586 -4.6893 7.1250 -0.0000 -0.0000 9.3473 -10.1934 7.6508
16.0858 18.2121 25.1737 -180.2810 6.3404 -176.4270 0.0000 0.0000 0.0000 -19.9221 0.1331 -21.5184 2.4124 9.6769 27.9366 0.1896 -4.6041 -7.9048 0.4446 -4.2784 -11.8613 0.0000 0.0000 0.0000 18.7566 2.7438 -5.4232 -8.5836 -16.5322 54.6387 0.6372 -14.9682 -11.3218 -0.6448 -5.1368 14.2992 -2.3072 0.2524 2.0056 1.6906 0.5123 4.2810 3.0462 0.2433 3.2505 -12.6710 -1.1703 -11.3137 -0.8833 5.5343 33.2435 2.8865 1.9359 12.9004 0.0000 0.0000 0.0000 -52.9990 10.3668 74.9308 34.2263 -44.2517 -14.2708 -0.0000 0.0000 -4.3490 11.1251 35.7541 6.5547 -7.1250 0.0000 -0.0000 -28.1416 64.1018 -13.5424 0.0000 0.0000 0.0000 80.7367 12.6579 24.3930 -27.4265 38.5829 -9.7640 0.0000 -0.0000 -17.1745 -13.7808 19.4245 -4.6632 7.1250 -0.0000 -0.0000 9.3801 -10.2333 7.6707
16.0491 18.2139 25.0333 -180.5100 6.0871 -176.5510 0.0000 0.0000 0.0000 -20.3462 -0.0274 -20.4281 2.3376 9.5365 27.4883 0.2155 -4.6263 -8.3810 0.3531 -3.8178 -10.5646 0.0000 0.0000 0.0000 18.5034 2.6096 -6.6688 -8.9735 -16.7906 55.9983 0.6162 -14.7998 -11.3792 -0.7363 -5.4818 15.2881 -2.4310 -0.0074 1.9325 1.7426 0.1704 4.3456 3.1683 0.0666 3.3836 -12.8270 -0.9812 -11.1694 -0.9461 5.7941 32.9928 2.9082 2.0352 12.7480 0.0000 0.0000 0.0000 -53.5516 11.0301 73.2173 34.9769 -44.7956 -14.7971 -0.0000 0.0000 -1.9774 8.0937 35.3018 4.6980 -7.1250 0.0000 -0.0000 -30.8107 62.9149 -14.0907 0.0000 0.0000 0.0000 80.7031 12.5522 24.7237 -27.1076 38.2816 -9.5657 0.0000 -0.0000 -17.0717 -13.3687 19.4343 -4.5212 7.1250 -0.0000 -0.0000 9.6464 -10.2666 7.8883
16.0157 18.2163 24.8946 -180.7050 6.1214 -176.8080 0.0000 0.0000 0.0000 -20.7740 0.4076 -19.5751 2.2806 9.4276 27.1422 0.2368 -4.7711 -8.7738 0.3989 -4.0550 -11.2314 0.0000 0.0000 0.0000 18.2501 2.6844 -7.7267 -9.3257 -17.0128 57.2097 0.5601 -14.3354 -11.5023 -0.8284 -5.8068 16.2248 -2.5419 -0.0903 2.0485 1.7338 0.0683 4.4481 3.2211 0.0142 3.4333 -12.6575 -0.9156 -11.1226 -1.2123 5.9121 32.8838 2.7882 2.0800 12.7010 0.0000 0.0000 0.0000 -54.0409 10.4506 73.0069 33.7848 -43.9246 -13.9636 -0.0000 0.0000 -1.0756 5.2867 35.1221 3.0473 -7.1250 0.0000 -0.0000 -33.4714 62.0475 -14.7639 0.0000 0.0000 0.0000 80.7182 12.3763 24.9549 -26.8153 38.0025 -9.3852 0.0000 -0.0000 -17.2261 -13.6608 19.6413 -4.6705 7.1250 -0.0000 -0.0000 9.4631 -10.0279 7.7805
